# xmcd
#
# Track frame offsets: 
#        150
#        13200
#        30487
#        43800
#        55725
#        63262
#        77250
#        88200
#        104325
#        113550
#        126525
#        136012
#
# Disc length: 2067 seconds
#
# Revision: 1
# Processed by: cddbd v1.5.2PL0 Copyright (c) Steve Scherf et al.
# Submitted via: ExactAudioCopyFreeDBPlugin 1.0
#
DISCID=9708110c
DTITLE=The Warrior River Boys - Sounds Like Home
DYEAR=1993
DGENRE=Bluegrass
TTITLE0=Bright Sherman Valley
TTITLE1=Kentucky Mountain
TTITLE2=Deep River Blues
TTITLE3=Singing Waterfall
TTITLE4=Never Get to Hold You In My Arms Anymore
TTITLE5=Picture On the Wall
TTITLE6=The Goldrush is Over
TTITLE7=Lovin' Lies
TTITLE8=Never Again
TTITLE9=Be Careful of Stones That You Throw
TTITLE10=Way Down Deep in My Soul
TTITLE11=Alone and Forsaken
EXTD=
EXTT0=
EXTT1=
EXTT2=
EXTT3=
EXTT4=
EXTT5=
EXTT6=
EXTT7=
EXTT8=
EXTT9=
EXTT10=
EXTT11=
PLAYORDER=
